<svg width="25" height="24" viewBox="0 0 25 24" fill="none" xmlns="http://www.w3.org/2000/svg">
<path d="M22.0365 12H2.0033" stroke="#C7D8EB" stroke-width="2" stroke-linecap="round" stroke-linejoin="round"/>
<path d="M5.45902 5.11L2.0033 12V18C2.0033 18.5304 2.21436 19.0391 2.59005 19.4142C2.96575 19.7893 3.4753 20 4.00661 20H20.0331C20.5645 20 21.074 19.7893 21.4497 19.4142C21.8254 19.0391 22.0365 18.5304 22.0365 18V12L18.5807 5.11C18.4149 4.77679 18.1592 4.49637 17.8425 4.30028C17.5257 4.10419 17.1605 4.0002 16.7878 4H7.25199C6.87928 4.0002 6.51403 4.10419 6.19728 4.30028C5.88054 4.49637 5.62487 4.77679 5.45902 5.11V5.11Z" stroke="#C7D8EB" stroke-width="2" stroke-linecap="round" stroke-linejoin="round"/>
<path d="M6.01001 16H6.02001" stroke="#C7D8EB" stroke-width="2" stroke-linecap="round" stroke-linejoin="round"/>
<path d="M10.0166 16H10.0266" stroke="#C7D8EB" stroke-width="2" stroke-linecap="round" stroke-linejoin="round"/>
</svg>
